<svg height="409.6pt" viewBox="0 0 409.6 409.6" width="409.6pt" xmlns="http://www.w3.org/2000/svg"><path d="m204.800781 409.601562c-112.925781 0-204.800781-91.875-204.800781-204.800781s91.875-204.800781 204.800781-204.800781 204.800781 91.875 204.800781 204.800781-91.875 204.800781-204.800781 204.800781zm0-395.949218c-105.402343 0-191.148437 85.746094-191.148437 191.148437 0 105.398438 85.746094 191.144531 191.148437 191.144531 105.398438 0 191.144531-85.746093 191.144531-191.144531 0-105.402343-85.746093-191.148437-191.144531-191.148437zm0 0"/><path d="m204.800781 389.121094c-101.632812 0-184.320312-82.6875-184.320312-184.320313 0-101.632812 82.6875-184.320312 184.320312-184.320312 101.632813 0 184.320313 82.6875 184.320313 184.320312 0 101.632813-82.6875 184.320313-184.320313 184.320313zm0-354.988282c-94.109375 0-170.667969 76.558594-170.667969 170.667969 0 94.105469 76.558594 170.664063 170.667969 170.664063 94.105469 0 170.664063-76.558594 170.664063-170.664063 0-94.109375-76.558594-170.667969-170.664063-170.667969zm0 0"/><path d="m228.691406 197.972656h-85.332031c-3.769531 0-6.824219-3.050781-6.824219-6.824218v-102.402344c0-3.773438 3.054688-6.824219 6.824219-6.824219h85.332031c32 0 58.027344 26.03125 58.027344 58.023437 0 31.996094-26.027344 58.027344-58.027344 58.027344zm-78.503906-13.652344h78.503906c24.46875 0 44.375-19.90625 44.375-44.375 0-24.464843-19.90625-44.371093-44.375-44.371093h-78.503906zm0 0"/><path d="m249.171875 320.851562h-105.8125c-3.769531 0-6.824219-3.050781-6.824219-6.824218v-122.878906c0-3.773438 3.054688-6.828126 6.824219-6.828126h105.8125c31.996094 0 58.027344 26.03125 58.027344 58.027344v20.480469c0 31.992187-26.03125 58.023437-58.027344 58.023437zm-98.984375-13.652343h98.984375c24.46875 0 44.375-19.90625 44.375-44.371094v-20.480469c0-24.46875-19.90625-44.375-44.375-44.375h-98.984375zm0 0"/><path d="m163.839844 95.574219h-40.960938c-3.769531 0-6.824218-3.054688-6.824218-6.828125 0-3.773438 3.054687-6.824219 6.824218-6.824219h40.960938c3.769531 0 6.828125 3.050781 6.828125 6.824219 0 3.773437-3.058594 6.828125-6.828125 6.828125zm0 0"/><path d="m163.839844 320.851562h-40.960938c-3.769531 0-6.824218-3.050781-6.824218-6.824218 0-3.773438 3.054687-6.828125 6.824218-6.828125h40.960938c3.769531 0 6.828125 3.054687 6.828125 6.828125 0 3.773437-3.058594 6.824218-6.828125 6.824218zm0 0"/><path d="m157.011719 354.988281c-3.769531 0-6.824219-3.054687-6.824219-6.828125v-27.308594c0-3.773437 3.054688-6.824218 6.824219-6.824218 3.773437 0 6.828125 3.050781 6.828125 6.824218v27.308594c0 3.773438-3.054688 6.828125-6.828125 6.828125zm0 0"/><path d="m177.492188 354.988281c-3.769532 0-6.824219-3.054687-6.824219-6.828125v-34.132812c0-3.773438 3.054687-6.828125 6.824219-6.828125 3.769531 0 6.828124 3.054687 6.828124 6.828125v34.132812c0 3.773438-3.058593 6.828125-6.828124 6.828125zm0 0"/><path d="m157.011719 88.746094c-3.769531 0-6.824219-3.050782-6.824219-6.824219v-27.308594c0-3.773437 3.054688-6.828125 6.824219-6.828125 3.773437 0 6.828125 3.054688 6.828125 6.828125v27.308594c0 3.773437-3.054688 6.824219-6.828125 6.824219zm0 0"/><path d="m177.492188 95.574219c-3.769532 0-6.824219-3.054688-6.824219-6.828125v-34.132813c0-3.773437 3.054687-6.828125 6.824219-6.828125 3.769531 0 6.828124 3.054688 6.828124 6.828125v34.132813c0 3.773437-3.058593 6.828125-6.828124 6.828125zm0 0"/></svg>